<?xml version="1.0" standalone="no"?>
<svg version="1.1" xmlns="http://www.w3.org/2000/svg" xmlns:xlink="http://www.w3.org/1999/xlink" x="0px" y="0px" width="1090px" height="178px" viewBox="0 0 1090 178" enable-background="new 0 0 1090 178" xml:space="preserve"><polygon fill="#FFFFFF" points="1090,178 0,178 0,0 1090,0"/><path xmlns="http://www.w3.org/2000/svg" fill="#141412" font-weight="bold" d="M88.09 129.04Q75.99 129.04 66.36 123.92Q56.74 118.81 51.24 109.68Q45.74 100.55 45.74 89L45.74 89Q45.74 77.45 51.24 68.32Q56.74 59.19 66.36 54.08Q75.99 48.96 88.09 48.96L88.09 48.96Q98.65 48.96 107.12 52.70Q115.59 56.44 121.20 63.48L121.20 63.48L107.34 76.02Q99.86 67 89.19 67L89.19 67Q82.92 67 78.03 69.75Q73.13 72.50 70.44 77.50Q67.74 82.51 67.74 89L67.74 89Q67.74 95.49 70.44 100.50Q73.13 105.50 78.03 108.25Q82.92 111 89.19 111L89.19 111Q99.86 111 107.34 101.98L107.34 101.98L121.20 114.52Q115.59 121.56 107.12 125.30Q98.65 129.04 88.09 129.04L88.09 129.04ZM152.44 110.67L192.70 110.67L192.70 127.50L130.88 127.50L130.88 50.50L191.27 50.50L191.27 67.33L152.44 67.33L152.44 80.31L186.65 80.31L186.65 96.59L152.44 96.59L152.44 110.67ZM260.24 50.50L281.80 50.50L248.80 127.50L227.35 127.50L194.46 50.50L218.00 50.50L238.90 100.66L260.24 50.50ZM286.31 127.50L286.31 50.50L308.09 50.50L308.09 127.50L286.31 127.50Z"/><g><path fill="#323394" d="M334.931,73.371c-0.181-0.641-0.267-1.301-0.327-1.85l12.602,12.581 C340.397,81.64,336.158,81.975,334.931,73.371"/><path fill="#c41333" d="M415.722,115.954c-8.831,2.554-17.685,4.158-26.022,4.703l31.227,31.223l11.095-41.367 C427.111,112.417,421.689,114.222,415.722,115.954"/><path fill="#c41333" d="M443.51,64.399c-11.379,7.401-25.311,13.781-38.275,17.489c-17.806,5.161-35.959,6.776-49.823,4.384 l-21.157-21.185l117.507-31.565L443.51,64.399"/><path fill="#323394" d="M460.756,86.589c-8.896,10.981-23.162,18.734-46.193,25.432c-23.495,6.697-46.936,6.516-59.736-0.58 c-4.496-2.516-7.312-5.601-8.392-9.293l-6.739-16.765c0.268,0.129,0.535,0.267,0.766,0.5c13.803,7.585,39.672,7.634,65.947,0.128 c21.021-6.073,43.057-18.351,54.348-30.131V86.589"/><path fill="#323394" d="M420.924,37.621l-82.082,21.879c8.453-12.008,28.283-23.847,51.221-30.49 c6.447-1.871,20.849-4.191,30.861-3.807V37.621"/></g><path xmlns="http://www.w3.org/2000/svg" fill="#141412" font-weight="bold" d="M520.76 129.04Q511.41 129.04 502.61 126.73Q493.81 124.42 488.31 120.57L488.31 120.57L495.46 104.51Q500.63 107.92 507.45 110.01Q514.27 112.10 520.87 112.10L520.87 112.10Q533.41 112.10 533.41 105.83L533.41 105.83Q533.41 102.53 529.84 100.94Q526.26 99.34 518.34 97.58L518.34 97.58Q509.65 95.71 503.82 93.56Q497.99 91.42 493.81 86.69Q489.63 81.96 489.63 73.93L489.63 73.93Q489.63 66.89 493.48 61.22Q497.33 55.56 504.98 52.26Q512.62 48.96 523.73 48.96L523.73 48.96Q531.32 48.96 538.69 50.67Q546.06 52.37 551.67 55.67L551.67 55.67L544.96 71.84Q533.96 65.90 523.62 65.90L523.62 65.90Q517.13 65.90 514.16 67.83Q511.19 69.75 511.19 72.83L511.19 72.83Q511.19 75.91 514.71 77.45Q518.23 78.99 526.04 80.64L526.04 80.64Q534.84 82.51 540.62 84.66Q546.39 86.80 550.63 91.47Q554.86 96.15 554.86 104.18L554.86 104.18Q554.86 111.11 551.01 116.72Q547.16 122.33 539.46 125.69Q531.76 129.04 520.76 129.04L520.76 129.04ZM603.26 129.04Q591.16 129.04 581.53 123.92Q571.91 118.81 566.41 109.68Q560.91 100.55 560.91 89L560.91 89Q560.91 77.45 566.41 68.32Q571.91 59.19 581.53 54.08Q591.16 48.96 603.26 48.96L603.26 48.96Q613.82 48.96 622.29 52.70Q630.76 56.44 636.37 63.48L636.37 63.48L622.51 76.02Q615.03 67 604.36 67L604.36 67Q598.09 67 593.19 69.75Q588.30 72.50 585.60 77.50Q582.91 82.51 582.91 89L582.91 89Q582.91 95.49 585.60 100.50Q588.30 105.50 593.19 108.25Q598.09 111 604.36 111L604.36 111Q615.03 111 622.51 101.98L622.51 101.98L636.37 114.52Q630.76 121.56 622.29 125.30Q613.82 129.04 603.26 129.04L603.26 129.04ZM697.53 50.50L719.31 50.50L719.31 127.50L697.53 127.50L697.53 97.47L667.83 97.47L667.83 127.50L646.05 127.50L646.05 50.50L667.83 50.50L667.83 79.43L697.53 79.43L697.53 50.50ZM834.48 50.50L855.27 50.50L830.30 127.50L806.98 127.50L792.24 80.64L776.84 127.50L753.52 127.50L728.55 50.50L750.99 50.50L766.50 99.67L782.78 50.50L802.80 50.50L818.31 100.11L834.48 50.50ZM884.64 110.67L924.90 110.67L924.90 127.50L863.08 127.50L863.08 50.50L923.47 50.50L923.47 67.33L884.64 67.33L884.64 80.31L918.85 80.31L918.85 96.59L884.64 96.59L884.64 110.67ZM937.00 127.50L937.00 50.50L958.78 50.50L958.78 127.50L937.00 127.50ZM998.93 110.23L1039.41 110.23L1039.41 127.50L970.44 127.50L970.44 113.86L1009.27 67.77L971.43 67.77L971.43 50.50L1037.76 50.50L1037.76 64.14L998.93 110.23Z"/></svg>